<?xml version="1.0" standalone="no"?>
<!DOCTYPE svg PUBLIC "-//W3C//DTD SVG 1.1//EN" "http://www.w3.org/Graphics/SVG/1.1/DTD/svg11.dtd" >
<svg xmlns="http://www.w3.org/2000/svg" xmlns:xlink="http://www.w3.org/1999/xlink" version="1.1">
<metadata>
Created by FontForge 20201107 at Sun Mar  8 18:18:32 2015
 By Unknown
www.love-letters.be
</metadata>
<defs>
<font id="CothamSans" horiz-adv-x="672" >
  <font-face 
    font-family="Cotham Sans"
    font-weight="400"
    font-stretch="normal"
    units-per-em="1000"
    panose-1="2 0 0 0 0 0 0 0 0 0"
    ascent="750"
    descent="-250"
    x-height="470"
    cap-height="740"
    bbox="-35 -250 1010 762"
    underline-thickness="50"
    underline-position="-100"
    unicode-range="U+0020-FB02"
  />
<missing-glyph horiz-adv-x="250" 
 />
    <glyph glyph-name=".notdef" horiz-adv-x="250" 
 />
    <glyph glyph-name="D" unicode="D" horiz-adv-x="687" 
d="M67 0v740h226c62 0 145 -19 198 -49c88 -64 153 -188 153 -321s-65 -257 -153 -321c-53 -30 -136 -49 -198 -49h-226zM159 78h109c84 0 138 19 180 48c64 51 102 143 102 244s-38 193 -102 244c-42 29 -96 48 -180 48h-109v-584z" />
    <glyph glyph-name="E" unicode="E" horiz-adv-x="575" 
d="M56 0v740h498v-76h-406v-245h330v-77h-330v-266h406v-76h-498z" />
    <glyph glyph-name="F" unicode="F" horiz-adv-x="586" 
d="M55 0v740h499v-75h-407v-248h331v-75h-331v-342h-92z" />
    <glyph glyph-name="G" unicode="G" horiz-adv-x="820" 
d="M417 300v70h330v-377h-89v110c-13 -17 -27 -32 -43 -45c-60 -48 -129 -69 -210 -69c-216 0 -345 149 -345 371c0 229 146 390 354 390c92 0 179 -21 233 -71c49 -45 71 -95 84 -170l-51 -8c-19 -3 -34 -6 -52 -8c-10 104 -88 180 -209 180c-173 0 -253 -131 -253 -303
c0 -173 80 -302 253 -302c133 0 223 92 239 211v21h-241z" />
    <glyph glyph-name="H" unicode="H" horiz-adv-x="729" 
d="M570 399v341h92v-740h-92v323h-404v-323h-92v740h92v-341h404z" />
    <glyph glyph-name="I" unicode="I" horiz-adv-x="322" 
d="M112 0v740h92v-740h-92z" />
    <glyph glyph-name="L" unicode="L" horiz-adv-x="579" 
d="M85 0v740h92v-662h393v-78h-485z" />
    <glyph glyph-name="M" unicode="M" horiz-adv-x="901" 
d="M496 10h-78l-245 602v-612h-92v740h131l245 -605l247 605h129v-740h-90v617z" />
    <glyph glyph-name="O" unicode="O" horiz-adv-x="810" 
d="M404 668c-174 0 -267 -123 -267 -297c0 -176 93 -299 267 -299c180 0 275 123 275 299c0 174 -95 297 -275 297zM404 750c227 0 373 -159 373 -379c0 -224 -152 -381 -373 -381c-220 0 -367 157 -367 381c0 220 142 379 367 379z" />
    <glyph glyph-name="R" unicode="R" horiz-adv-x="634" 
d="M52 0v740h277c94 0 154 -17 203 -53v1c35 -33 63 -87 63 -151c0 -69 -25 -121 -66 -154c-30 -24 -68 -40 -109 -49c47 -27 74 -70 122 -214c14 -41 30 -91 46 -120h-105l-32 95c-26 76 -56 183 -113 227c-14 -1 -27 -1 -39 -1h-154v-321h-93zM145 397h164
c64 0 110 7 144 29c31 21 45 52 45 101c0 111 -78 138 -169 138h-184v-268z" />
    <glyph glyph-name="S" unicode="S" horiz-adv-x="650" 
d="M587 559l-80 -17c-9 95 -102 131 -184 131c-86 0 -170 -26 -170 -123c0 -65 42 -113 208 -130c167 -18 246 -74 246 -206c0 -116 -94 -224 -293 -224c-156 0 -270 80 -280 211c13 2 25 6 39 8c13 2 24 5 38 8c42 -144 148 -149 224 -149c88 0 184 39 184 142
c0 102 -93 126 -232 139c-196 21 -224 140 -224 192c0 96 65 209 245 209c179 0 277 -68 279 -191z" />
    <glyph glyph-name="T" unicode="T" horiz-adv-x="605" 
d="M20 664v76h565v-76h-233v-664h-90v664h-242z" />
    <glyph glyph-name="U" unicode="U" horiz-adv-x="751" 
d="M378 -10c-229 0 -305 151 -305 301v449h91v-449c0 -172 107 -217 214 -217s215 45 215 217v449h92v-449c0 -150 -77 -301 -307 -301z" />
    <glyph glyph-name="period" unicode="." horiz-adv-x="228" 
d="M25 68c0 45 32 78 74 78c45 0 78 -33 78 -78c0 -42 -33 -74 -78 -74c-42 0 -74 32 -74 74z" />
    <glyph glyph-name="comma" unicode="," horiz-adv-x="228" 
d="M28 73c0 39 31 71 71 71c33 0 55 -14 69 -33c12 -16 19 -36 19 -63c0 -40 -10 -81 -31 -120c-20 -36 -56 -74 -84 -95l-38 43s71 63 73 124h-6c-51 0 -73 37 -73 73z" />
    <glyph glyph-name="quoteright" unicode="&#x2019;" horiz-adv-x="234" 
d="M42 691c0 39 31 71 71 71c33 0 55 -14 69 -33c12 -16 19 -36 19 -63c0 -40 -10 -81 -31 -120c-20 -36 -56 -74 -84 -95l-38 43s71 62 73 124h-6c-51 0 -73 37 -73 73z" />
    <glyph glyph-name="hyphen" unicode="-" horiz-adv-x="425" 
d="M55 230v83h315v-83h-315z" />
    <glyph glyph-name="circumflex" unicode="&#x2c6;" horiz-adv-x="348" 
d="M145 750h62l152 -208h-82l-101 127l-101 -127h-82z" />
    <glyph glyph-name="tilde" unicode="&#x2dc;" horiz-adv-x="371" 
d="M68 593h-53c0 66 28 135 116 135c58 0 91 -58 124 -58c47 0 48 39 48 63h53c0 -66 -28 -135 -116 -135c-58 0 -91 58 -124 58c-41 0 -48 -39 -48 -63z" />
    <glyph glyph-name="cedilla" unicode="&#xb8;" horiz-adv-x="823" 
d="M219 11h57l-3 -46c46 -11 89 -37 89 -91c0 -66 -61 -88 -112 -88c-42 0 -68 11 -82 18l17 49s26 -12 55 -12c22 0 46 9 46 34c0 31 -39 51 -87 46z" />
    <glyph glyph-name="quoteleft" unicode="&#x2018;" horiz-adv-x="234" 
d="M191 522c0 -39 -31 -71 -71 -71c-33 0 -55 14 -69 33c-12 16 -19 36 -19 63c0 40 10 81 31 120c20 36 56 74 84 95l38 -43s-72 -63 -73 -125c2 0 4 1 6 1c51 0 73 -37 73 -73z" />
    <glyph glyph-name="quotedblright" unicode="&#x201d;" horiz-adv-x="453" 
d="M42 691c0 39 31 71 71 71c33 0 55 -14 69 -33c12 -16 19 -36 19 -63c0 -40 -10 -81 -31 -120c-20 -36 -56 -74 -84 -95l-38 43s71 62 73 124h-6c-51 0 -73 37 -73 73zM256 691c0 39 31 71 71 71c33 0 55 -14 69 -33c12 -16 19 -36 19 -63c0 -40 -10 -81 -31 -120
c-20 -36 -56 -74 -84 -95l-38 43s71 62 73 124h-6c-51 0 -73 37 -73 73z" />
    <glyph glyph-name="quotedblleft" unicode="&#x201c;" horiz-adv-x="453" 
d="M415 522c0 -39 -31 -71 -71 -71c-33 0 -55 14 -69 33c-12 16 -19 36 -19 63c0 40 10 81 31 120c20 36 56 74 84 95l38 -43s-72 -63 -73 -125c2 0 4 1 6 1c51 0 73 -37 73 -73zM201 522c0 -39 -31 -71 -71 -71c-33 0 -55 14 -69 33c-12 16 -19 36 -19 63
c0 40 10 81 31 120c20 36 56 74 84 95l38 -43s-72 -63 -73 -125c2 0 4 1 6 1c51 0 73 -37 73 -73z" />
    <glyph glyph-name="colon" unicode=":" horiz-adv-x="335" 
d="M95 401c0 45 32 78 74 78c45 0 78 -33 78 -78c0 -42 -33 -74 -78 -74c-42 0 -74 32 -74 74zM95 68c0 45 32 78 74 78c45 0 78 -33 78 -78c0 -42 -33 -74 -78 -74c-42 0 -74 32 -74 74z" />
    <glyph glyph-name="semicolon" unicode=";" horiz-adv-x="338" 
d="M92 73c0 39 31 71 71 71c33 0 55 -14 69 -33c12 -16 19 -36 19 -63c0 -40 -10 -81 -31 -120c-20 -36 -56 -74 -84 -95l-38 43s71 63 73 124h-6c-51 0 -73 37 -73 73zM93 401c0 45 32 78 74 78c45 0 78 -33 78 -78c0 -42 -33 -74 -78 -74c-42 0 -74 32 -74 74z" />
    <glyph glyph-name="slash" unicode="/" horiz-adv-x="444" 
d="M45 0l260 757h94l-260 -757h-94z" />
    <glyph glyph-name="backslash" unicode="\" horiz-adv-x="444" 
d="M139 757l260 -757h-94l-260 757h94z" />
    <glyph glyph-name="bracketleft" unicode="[" horiz-adv-x="407" 
d="M105 -210v967h276v-52h-188v-863h188v-52h-276z" />
    <glyph glyph-name="bracketright" unicode="]" horiz-adv-x="407" 
d="M302 757v-967h-276v52h188v863h-188v52h276z" />
    <glyph glyph-name="bar" unicode="|" horiz-adv-x="378" 
d="M145 -210v967h88v-967h-88z" />
    <glyph glyph-name="underscore" unicode="_" horiz-adv-x="560" 
d="M-5 -209v68h570v-68h-570z" />
    <glyph glyph-name="braceleft" unicode="{" horiz-adv-x="399" 
d="M85 248v50c182 11 -25 473 248 459l1 -40c-143 -12 29 -444 -201 -444c230 0 58 -432 201 -444l-1 -40c-273 -14 -66 448 -248 459z" />
    <glyph glyph-name="braceright" unicode="}" horiz-adv-x="399" 
d="M314 298v-50c-182 -11 25 -473 -248 -459l-1 40c143 12 -29 444 201 444c-230 0 -58 432 -201 444l1 40c273 14 66 -448 248 -459z" />
    <glyph glyph-name="asciitilde" unicode="~" horiz-adv-x="576" 
d="M77 227l-52 45s50 90 165 90c108 0 121 -63 195 -63c77 0 114 65 114 65l52 -45s-49 -90 -166 -90c-99 0 -121 63 -195 63c-75 0 -113 -65 -113 -65z" />
    <glyph glyph-name="emdash" unicode="&#x2014;" horiz-adv-x="747" 
d="M752 214h-757v63h757v-63z" />
    <glyph glyph-name="endash" unicode="&#x2013;" horiz-adv-x="369" 
d="M374 214h-379v63h379v-63z" />
    <glyph glyph-name="guillemotleft" unicode="&#xab;" horiz-adv-x="517" 
d="M170 41l-90 214l90 215h104l-90 -215l90 -214h-104zM351 41l-90 214l90 215h104l-90 -215l90 -214h-104z" />
    <glyph glyph-name="guillemotright" unicode="&#xbb;" horiz-adv-x="517" 
d="M435 255l-90 -214h-104l90 214l-90 215h104zM254 255l-90 -214h-104l90 214l-90 215h104z" />
    <glyph glyph-name="guilsinglleft" unicode="&#x2039;" horiz-adv-x="334" 
d="M170 41l-90 214l90 215h104l-90 -215l90 -214h-104z" />
    <glyph glyph-name="guilsinglright" unicode="&#x203a;" horiz-adv-x="334" 
d="M269 256l-90 -214h-104l90 214l-90 215h104z" />
    <glyph glyph-name="fraction" unicode="&#x2044;" horiz-adv-x="500" 
d="M45 0l350 701h60l-350 -701h-60z" />
    <glyph glyph-name="ellipsis" unicode="&#x2026;" horiz-adv-x="909" 
d="M90 70c0 45 32 79 76 79c45 0 79 -34 79 -79c0 -44 -34 -76 -79 -76c-44 0 -76 32 -76 76zM377 70c0 45 32 79 76 79c45 0 79 -34 79 -79c0 -44 -34 -76 -79 -76c-44 0 -76 32 -76 76zM664 70c0 45 32 79 76 79c45 0 79 -34 79 -79c0 -44 -34 -76 -79 -76
c-44 0 -76 32 -76 76z" />
    <glyph glyph-name="a" unicode="a" horiz-adv-x="510" 
d="M341 265v32c0 52 -16 113 -101 113c-112 0 -112 -64 -102 -92l-85 6c-2 9 -2 14 -2 22c0 81 94 129 188 129c91 0 186 -30 186 -176v-186c0 -39 8 -62 52 -57v-59c-6 -2 -28 -7 -42 -7c-53 0 -81 42 -84 76l-9 3c-40 -46 -94 -79 -158 -79c-86 0 -146 49 -146 126
c0 71 41 116 111 136c27 8 62 10 95 11zM128 122c0 -44 30 -65 73 -65c46 0 106 32 140 91v60l-92 -3c-60 -3 -121 -21 -121 -83z" />
    <glyph glyph-name="b" unicode="b" horiz-adv-x="552" 
d="M57 0v750h82v-360c32 50 86 87 160 87c123 0 216 -95 216 -237c0 -166 -105 -248 -232 -248c-69 0 -117 33 -147 76l-11 -5l4 -63h-72zM280 405c-81 0 -138 -61 -141 -158v-14c0 -94 49 -173 143 -173c65 0 141 39 141 172c0 130 -74 173 -143 173z" />
    <glyph glyph-name="c" unicode="c" horiz-adv-x="493" 
d="M383 179l83 -11c5 -54 -28 -103 -65 -133c-40 -31 -91 -44 -148 -44c-138 0 -212 95 -212 236c0 146 94 252 225 252c57 0 105 -13 143 -45c33 -28 61 -72 55 -121l-80 -11c2 30 -9 56 -24 72c-24 28 -57 39 -92 39c-87 0 -140 -88 -140 -179c0 -93 41 -176 139 -176
c35 0 65 13 89 37c18 19 27 50 27 84z" />
    <glyph glyph-name="d" unicode="d" horiz-adv-x="567" 
d="M428 70l-13 4c-33 -50 -87 -81 -162 -81c-123 0 -217 95 -217 237c0 166 106 248 233 248c67 0 114 -28 144 -68v340h83v-750h-71zM272 65c83 0 141 64 141 165v7c0 94 -49 173 -143 173c-65 0 -141 -39 -141 -172c0 -130 74 -173 143 -173z" />
    <glyph glyph-name="e" unicode="e" horiz-adv-x="504" 
d="M374 159l81 -11c3 -40 -21 -77 -47 -102c-40 -40 -93 -55 -160 -55c-139 0 -208 95 -208 236c0 146 89 248 217 248c117 0 204 -77 206 -201h1v-56h-342c4 -89 41 -161 140 -161c36 0 64 13 87 36c15 16 26 38 25 66zM258 409c-83 0 -124 -59 -134 -135h254
c2 82 -49 135 -120 135z" />
    <glyph glyph-name="f" unicode="f" horiz-adv-x="296" 
d="M297 404h-112v-404h-82v404h-88v66h88c-2 65 -30 105 -30 159c0 81 81 121 138 121c73 0 130 -23 146 -86c3 -13 3 -28 -1 -45l-80 -17c5 46 -7 83 -70 83c-27 0 -50 -22 -50 -56c0 -52 22 -85 28 -159h113v-66z" />
    <glyph glyph-name="g" unicode="g" horiz-adv-x="521" 
d="M61 304c0 91 67 171 202 171c13 0 25 -1 37 -3c-4 10 -4 21 -4 34c0 61 57 96 116 96c53 0 92 -17 113 -55l-45 -42c-19 24 -42 32 -73 31c-29 -1 -44 -27 -44 -46c0 -23 4 -30 18 -43c56 -31 84 -85 84 -143c0 -89 -66 -169 -202 -169c-28 0 -53 3 -75 9
c-34 -10 -48 -28 -48 -44c0 -41 25 -44 171 -44c106 0 204 -39 204 -134c0 -132 -164 -172 -262 -172c-140 0 -219 54 -219 140c0 55 69 96 106 102c-50 10 -85 39 -85 90c0 33 19 68 74 90c-46 31 -68 80 -68 132zM122 -99c0 -55 67 -80 133 -80c89 0 175 33 175 89
c0 40 -36 76 -154 74c-22 0 -34 -1 -44 -1h-11c-50 -12 -99 -38 -99 -82zM148 304c0 -60 43 -108 115 -108c73 0 116 48 116 108c0 62 -43 110 -116 110c-72 0 -115 -48 -115 -110z" />
    <glyph glyph-name="h" unicode="h" horiz-adv-x="496" 
d="M366 0v274c0 91 -44 124 -104 124c-45 0 -120 -28 -123 -135v-263h-82v750h82v-355c28 47 80 80 141 80c116 0 168 -74 168 -183v-292h-82z" />
    <glyph glyph-name="i" unicode="i" horiz-adv-x="235" 
d="M75 0v470h82v-470h-82zM61 655c0 33 21 53 56 53s55 -20 55 -53s-20 -53 -55 -53s-56 20 -56 53z" />
    <glyph glyph-name="j" unicode="j" horiz-adv-x="271" 
d="M99 -43v513h82v-510c0 -100 -13 -157 -63 -191c-37 -25 -103 -21 -153 -9l4 70c28 -11 49 -11 64 -11c52 0 67 48 66 138zM88 655c0 33 21 53 56 53s55 -20 55 -53s-20 -53 -55 -53s-56 20 -56 53z" />
    <glyph glyph-name="k" unicode="k" horiz-adv-x="478" 
d="M77 0v750h82v-484l205 203h105l-189 -184l203 -285h-103l-161 225l-60 -59v-166h-82z" />
    <glyph glyph-name="l" unicode="l" horiz-adv-x="219" 
d="M73 0v750h82v-750h-82z" />
    <glyph glyph-name="m" unicode="m" horiz-adv-x="823" 
d="M365 0v274c0 91 -49 124 -103 124c-45 0 -120 -28 -123 -135v-263h-82v470h74v-89c26 55 82 94 149 94c78 0 130 -39 153 -100c23 60 83 100 155 100c109 0 167 -74 167 -183v-292h-82v274c0 91 -49 124 -103 124c-46 0 -123 -29 -123 -143v-255h-82z" />
    <glyph glyph-name="n" unicode="n" horiz-adv-x="535" 
d="M391 0v274c0 91 -44 124 -104 124c-45 0 -120 -28 -123 -135v-263h-82v470h74v-89c26 55 82 94 149 94c116 0 168 -74 168 -183v-292h-82z" />
    <glyph glyph-name="o" unicode="o" horiz-adv-x="545" 
d="M40 223c0 127 76 254 233 254c155 0 232 -117 232 -244c0 -126 -77 -243 -232 -243c-157 0 -233 117 -233 233zM131 233c0 -84 38 -177 142 -177s140 93 140 177c0 85 -36 178 -140 178s-142 -93 -142 -178z" />
    <glyph glyph-name="p" unicode="p" horiz-adv-x="552" 
d="M127 470l-4 -70l14 -4c33 50 87 81 162 81c123 0 216 -95 216 -237c0 -166 -105 -248 -232 -248c-67 0 -115 28 -144 68v-310h-82v720h70zM280 405c-83 0 -141 -64 -141 -165v-14c2 -91 51 -166 143 -166c65 0 141 39 141 172c0 130 -74 173 -143 173z" />
    <glyph glyph-name="q" unicode="q" horiz-adv-x="571" 
d="M495 470v-720h-82v320c-33 -48 -87 -78 -160 -78c-123 0 -216 95 -216 237c0 166 105 248 232 248c67 0 116 -29 145 -70l15 4l-1 59h67zM272 64c83 0 141 64 141 165v14c-3 91 -52 166 -143 166c-65 0 -141 -39 -141 -172c0 -130 74 -173 143 -173z" />
    <glyph glyph-name="r" unicode="r" horiz-adv-x="400" 
d="M61 0v470h74v-89c25 57 73 94 123 94c81 0 137 -39 137 -125c0 -10 -1 -22 -2 -34l-86 -14c2 18 2 43 -1 54c-13 47 -45 49 -66 49c-28 0 -51 -21 -65 -46c-16 -23 -30 -71 -32 -133v-226h-82z" />
    <glyph glyph-name="s" unicode="s" horiz-adv-x="441" 
d="M386 354l-74 -16c-3 55 -58 72 -104 72c-52 0 -86 -26 -86 -60c0 -36 21 -53 116 -74c103 -22 160 -58 160 -139c0 -77 -59 -146 -193 -146c-86 0 -178 45 -174 139l72 18c10 -63 48 -92 114 -92c64 0 99 27 99 66c0 47 -47 62 -118 79c-56 13 -97 30 -122 53
c-25 24 -33 55 -33 83c0 62 49 138 174 138c74 0 173 -36 169 -121z" />
    <glyph glyph-name="t" unicode="t" horiz-adv-x="319" 
d="M296 404h-120v-261c0 -69 13 -78 40 -78c17 0 44 3 66 10l1 -66c-28 -9 -67 -15 -100 -15c-92 0 -89 60 -89 155v255h-76v63h76v168l82 30v-198h120v-63z" />
    <glyph glyph-name="u" unicode="u" horiz-adv-x="508" 
d="M132 470v-279c0 -91 38 -124 104 -124c46 0 123 29 123 143v260h82v-470h-74v84c-27 -55 -83 -94 -149 -94c-116 0 -168 74 -168 183v297h82z" />
    <glyph glyph-name="v" unicode="v" horiz-adv-x="468" 
d="M194 0l-178 470h84l134 -358l135 358h83l-177 -470h-81z" />
    <glyph glyph-name="w" unicode="w" horiz-adv-x="725" 
d="M184 0l-168 470h83l116 -335l115 335h66l115 -335l115 335h83l-167 -470h-61l-113 324l-5 19l-4 -18l-114 -325h-61z" />
    <glyph glyph-name="x" unicode="x" horiz-adv-x="464" 
d="M444 0h-97l-118 170l-113 -170h-94l160 237l-162 233h97l118 -170l113 170h94l-160 -238z" />
    <glyph glyph-name="y" unicode="y" horiz-adv-x="485" 
d="M452 470l-178 -472l-41 -109c-42 -112 -115 -134 -159 -134c-30 0 -57 5 -71 21l17 85c13 -11 31 -17 53 -17c40 0 64 15 95 93l25 66l-178 467h86l131 -348l2 -10l1 3l2 7l131 348h84z" />
    <glyph glyph-name="z" unicode="z" horiz-adv-x="426" 
d="M37 401v69h359v-69l-270 -332h275v-69h-375v69l270 332h-259z" />
    <glyph glyph-name="DEL" horiz-adv-x="0" 
 />
    <glyph glyph-name="fi" unicode="&#xfb01;" horiz-adv-x="585" 
d="M302 404h-112v-404h-82v404h-88v66h88c-2 65 -30 105 -30 159c0 81 81 121 138 121c73 0 130 -23 146 -86c3 -13 3 -28 -1 -45l-80 -17c5 46 -7 83 -70 83c-27 0 -50 -22 -50 -56c0 -52 22 -85 28 -159h113v-66zM414 0v470h82v-470h-82zM400 655c0 33 21 53 56 53
s55 -20 55 -53s-20 -53 -55 -53s-56 20 -56 53z" />
    <glyph glyph-name="fl" unicode="&#xfb02;" horiz-adv-x="566" 
d="M302 404h-112v-404h-82v404h-88v66h88c-2 65 -30 105 -30 159c0 81 81 121 138 121c73 0 130 -23 146 -86c3 -13 3 -28 -1 -45l-80 -17c5 46 -7 83 -70 83c-27 0 -50 -22 -50 -56c0 -52 22 -85 28 -159h113v-66zM405 0v750h82v-750h-82z" />
    <glyph glyph-name="C" unicode="C" horiz-adv-x="772" 
d="M638 269l97 -11c-5 -83 -44 -152 -101 -197c-60 -48 -142 -72 -223 -72c-227 0 -355 149 -355 371c0 229 146 390 364 390c92 0 175 -30 229 -81c47 -44 75 -109 77 -188c-16 -1 -32 -4 -48 -5c-4 0 -8 -1 -12 -1l-37 -4c-4 127 -99 202 -211 202
c-162 0 -259 -131 -259 -303c0 -182 99 -299 259 -299c120 0 210 65 220 198z" />
    <glyph glyph-name="A" unicode="A" horiz-adv-x="683" 
d="M397 740l274 -740h-94c-25 73 -52 149 -80 225h-299l-79 -225h-95l272 740h101zM347 642c-39 -111 -81 -229 -123 -345h247c-42 116 -85 233 -124 345z" />
    <glyph glyph-name="B" unicode="B" horiz-adv-x="623" 
d="M67 0v740h247c91 0 151 -10 196 -48c34 -28 64 -80 64 -145c0 -91 -64 -143 -149 -168c100 -19 170 -68 170 -181c0 -92 -34 -135 -86 -166c-53 -32 -131 -32 -205 -32h-237zM160 77h156c108 0 178 20 178 121c0 39 -19 79 -47 100c-32 24 -76 33 -141 33h-146v-254z
M160 410h124c108 0 190 35 190 126c0 101 -74 129 -160 129h-154v-255z" />
    <glyph glyph-name="V" unicode="V" horiz-adv-x="655" 
d="M307 0l-275 740h94l208 -585l209 585h94l-275 -740h-55z" />
    <glyph glyph-name="P" unicode="P" horiz-adv-x="598" 
d="M63 0v740h219c165 0 287 -53 287 -224c0 -173 -143 -224 -287 -224h-122v-292h-97zM160 370h122c109 0 191 28 191 146c0 113 -67 146 -191 146h-122v-292z" />
    <glyph glyph-name="N" unicode="N" horiz-adv-x="780" 
d="M591 140v600h92v-740h-106l-384 607v-607h-92v740h112c119 -190 256 -405 378 -600z" />
    <glyph glyph-name="J" unicode="J" horiz-adv-x="348" 
d="M153 265v475h93v-471c0 -69 -2 -144 -20 -187c-34 -59 -109 -83 -174 -83c-12 0 -23 1 -35 2h-3l3 84c10 -1 20 -2 29 -2c34 0 64 9 83 34c18 27 24 78 24 148z" />
    <glyph glyph-name="K" unicode="K" horiz-adv-x="712" 
d="M208 274l2 121l-1 -1l325 346h111l-317 -338c106 -134 212 -266 318 -402h-118c-47 58 -97 122 -147 186l-117 148zM116 0v740h91v-740h-91z" />
    <glyph glyph-name="Q" unicode="Q" horiz-adv-x="833" 
d="M393 750c227 0 373 -159 373 -379c0 -147 -65 -264 -172 -328c16 -37 49 -52 79 -45c16 4 35 19 46 32l54 -37c-13 -31 -50 -61 -86 -70c-13 -4 -28 -5 -40 -5c-56 0 -105 37 -128 91c-39 -12 -81 -19 -126 -19c-220 0 -367 157 -367 381c0 220 142 379 367 379zM393 668
c-174 0 -267 -123 -267 -297c0 -176 93 -299 267 -299c180 0 275 123 275 299c0 174 -95 297 -275 297z" />
    <glyph glyph-name="W" unicode="W" horiz-adv-x="1053" 
d="M275 0l-227 740h90c30 -98 62 -197 94 -298l80 -257c27 84 54 171 82 257l93 298h84c48 -159 101 -327 152 -489l22 -66c44 147 93 301 140 449l35 106h90l-227 -740h-56l-198 593l-199 -593h-55z" />
    <glyph glyph-name="X" unicode="X" horiz-adv-x="711" 
d="M44 740h105l216 -304l214 304h97l-262 -373l261 -367h-116l-209 300l-208 -300h-101c87 125 173 244 260 370z" />
    <glyph glyph-name="Y" unicode="Y" horiz-adv-x="702" 
d="M144 740l208 -343l209 343h101c-69 -109 -136 -213 -204 -321c-20 -30 -40 -65 -60 -95v-324h-91v324c-21 32 -40 63 -60 95l-204 321h101z" />
    <glyph glyph-name="Z" unicode="Z" horiz-adv-x="664" 
d="M36 0v49l19 26l427 590h-436v75h558v-48l-5 -6h1l-440 -611h444v-75h-568z" />
    <glyph glyph-name="acute" unicode="&#xb4;" horiz-adv-x="833" 
d="M314 740h92l-121 -198h-65z" />
    <glyph glyph-name="grave" unicode="`" horiz-adv-x="833" 
d="M220 740h92l94 -198h-65z" />
    <glyph glyph-name="dieresis" unicode="&#xa8;" horiz-adv-x="833" 
d="M117 635c0 33 21 53 56 53s55 -20 55 -53s-20 -53 -55 -53s-56 20 -56 53zM292 635c0 33 21 53 56 53s55 -20 55 -53s-20 -53 -55 -53s-56 20 -56 53z" />
    <glyph glyph-name="two" unicode="2" 
d="M169 549l-81 16c3 121 99 191 272 191c138 0 235 -91 235 -200c0 -161 -96 -206 -195 -254v1l-44 -20c-83 -39 -158 -74 -186 -173c-2 -9 -2 -16 -2 -23c146 0 300 -2 447 -2v-85h-551v8c0 68 0 114 28 175h-1c40 82 137 135 227 175c102 45 189 91 189 187
c0 99 -107 134 -162 134c-79 0 -167 -32 -176 -130z" />
    <glyph glyph-name="zero" unicode="0" 
d="M337 674c-137 0 -211 -96 -211 -300c0 -217 74 -302 211 -302c141 0 216 96 216 302c0 204 -75 300 -216 300zM337 756c192 0 314 -133 314 -382c0 -253 -128 -384 -314 -384c-211 0 -309 131 -309 384c0 249 119 382 309 382z" />
    <glyph glyph-name="one" unicode="1" 
d="M92 0v83h196v488c-31 -31 -75 -42 -119 -42c-16 0 -50 3 -73 16v61c9 -1 20 -1 32 -1c60 0 156 25 160 141h89v-663h209v-83h-494z" />
    <glyph glyph-name="three" unicode="3" 
d="M66 180l81 16c11 -95 103 -131 175 -131c124 0 204 44 204 142c0 77 -59 139 -201 144h-5h-11h-82v70h82c130 2 186 67 186 136c0 92 -107 122 -163 122c-78 0 -166 -32 -175 -130l-81 16c3 121 99 191 272 191c138 0 235 -84 235 -188c0 -78 -35 -140 -101 -177
c84 -35 131 -99 131 -182c0 -134 -113 -220 -275 -220c-167 0 -268 70 -272 191z" />
    <glyph glyph-name="four" unicode="4" 
d="M62 187v83c109 150 233 319 342 470h90v-470h124v-83h-124v-187h-90v187h-342zM404 270v353l-249 -353h249z" />
    <glyph glyph-name="five" unicode="5" 
d="M99 363l28 383h432v-80h-357l-16 -206c49 29 109 43 151 43c143 5 276 -74 276 -253c0 -153 -113 -261 -275 -261c-167 0 -268 70 -272 191l81 16c11 -95 103 -131 175 -131c124 0 204 64 204 183c0 111 -92 175 -191 175c-60 0 -153 -37 -174 -94l-62 32s0 1 1 2h-1z
" />
    <glyph glyph-name="six" unicode="6" 
d="M333 65c117 0 193 61 193 173c0 110 -75 171 -174 171c-126 0 -195 -73 -199 -188c19 -87 66 -156 180 -156zM140 375v-5c50 85 113 117 207 117c144 0 267 -65 267 -237c0 -168 -114 -261 -276 -261c-240 0 -287 187 -287 385c0 194 75 382 294 382
c159 0 248 -70 251 -191l-81 -16c-8 98 -96 130 -165 130c-169 0 -210 -148 -210 -304z" />
    <glyph glyph-name="seven" unicode="7" 
d="M271 0h-93c1 60 16 131 39 201c43 129 115 262 195 365c27 35 53 67 79 96c-139 0 -287 -1 -426 -1v85h551v-74c-36 -39 -83 -94 -124 -150c-77 -105 -142 -213 -182 -331c-20 -59 -38 -136 -39 -191z" />
    <glyph glyph-name="eight" unicode="8" 
d="M337 -9c-184 0 -299 76 -299 218c0 70 36 134 112 174c-62 34 -91 90 -91 165c0 136 106 208 278 208c173 0 284 -72 284 -208c0 -73 -37 -127 -98 -162c74 -35 118 -95 118 -177c0 -143 -118 -218 -304 -218zM337 73c133 0 206 47 206 136c0 92 -73 136 -206 136
c-130 0 -201 -62 -201 -136c0 -89 71 -136 201 -136zM337 674c-117 0 -180 -44 -180 -126c0 -88 53 -122 153 -127c8 1 18 1 27 1s17 0 26 -1c103 6 160 48 160 127c0 82 -66 126 -186 126z" />
    <glyph glyph-name="nine" unicode="9" 
d="M332 680c-117 0 -193 -61 -193 -173c0 -110 75 -171 174 -171c126 0 195 73 199 188c-19 87 -66 156 -180 156zM525 370v5c-50 -85 -113 -117 -207 -117c-144 0 -267 65 -267 237c0 168 114 261 276 261c240 0 287 -187 287 -385c0 -194 -75 -382 -294 -382
c-159 0 -248 70 -251 191l81 16c8 -98 96 -130 165 -130c169 0 210 148 210 304z" />
    <glyph glyph-name="parenleft" unicode="(" horiz-adv-x="400" 
d="M160 278c0 -221 106 -420 158 -478l-94 -1c-58 78 -163 254 -163 479s105 401 163 479l94 -1c-52 -58 -158 -257 -158 -478z" />
    <glyph glyph-name="parenright" unicode=")" horiz-adv-x="400" 
d="M240 278c0 221 -106 420 -158 478l94 1c58 -78 163 -254 163 -479s-105 -401 -163 -479l-94 1c52 58 158 257 158 478z" />
    <glyph glyph-name="question" unicode="?" horiz-adv-x="534" 
d="M108 549l-81 16c3 121 95 191 262 191c132 0 235 -80 235 -178c0 -129 -106 -146 -211 -177c-66 -20 -109 -37 -109 -86c0 -41 23 -55 61 -54c32 1 56 35 56 51l64 -9c2 -70 -63 -110 -129 -112c-89 -3 -141 62 -138 128c3 75 65 122 133 140c101 27 178 43 178 111
c0 85 -103 109 -155 109c-75 0 -158 -32 -166 -130zM169 68c0 45 32 78 74 78c45 0 78 -33 78 -78c0 -42 -33 -74 -78 -74c-42 0 -74 32 -74 74z" />
    <glyph glyph-name="exclam" unicode="!" horiz-adv-x="319" 
d="M135 220l-13 276v244h92v-244l-13 -276h-66zM97 68c0 45 32 78 74 78c45 0 78 -33 78 -78c0 -42 -33 -74 -78 -74c-42 0 -74 32 -74 74z" />
    <glyph glyph-name="at" unicode="@" horiz-adv-x="732" 
d="M527 16l28 -48c-37 -37 -122 -62 -190 -62c-204 0 -315 122 -315 320c0 219 129 352 327 352c159 0 297 -93 304 -289c4 -126 -38 -221 -139 -223c-45 0 -80 26 -87 71c-1 0 -4 1 -8 1c-24 -39 -64 -73 -114 -73c-63 0 -108 37 -108 94c0 53 31 88 82 101
c38 9 83 8 122 3v23c0 30 -9 72 -59 72c-56 0 -61 -38 -54 -54l-80 6c-2 7 -2 10 -2 14c0 57 68 91 136 91c65 0 135 -22 135 -128v-82c0 -61 16 -76 46 -76c47 0 56 46 55 153c-2 150 -92 219 -227 219c-181 0 -253 -92 -253 -264c0 -178 75 -258 252 -258
c39 0 105 11 149 37zM305 163c0 -23 16 -33 39 -33c27 0 61 14 85 47v39l-52 -2c-36 -2 -72 -16 -72 -51z" />
    <glyph glyph-name="ampersand" unicode="&#x26;" horiz-adv-x="833" 
d="M778 0l-120 -1l-61 61c-52 -43 -126 -71 -228 -71c-137 0 -240 89 -240 202c0 97 66 151 134 200c-50 55 -88 116 -88 180c0 93 72 181 185 181c90 0 169 -61 169 -156c0 -94 -64 -145 -144 -207c14 -14 28 -26 40 -38c50 -50 108 -111 169 -173c21 37 30 77 30 109
s-13 75 -42 109c-14 17 -31 34 -46 41l41 73c23 -5 50 -30 65 -47c41 -48 58 -116 58 -168c0 -58 -15 -120 -49 -174c43 -44 87 -86 127 -121zM379 64c71 0 124 21 162 52l-139 141c-26 24 -56 50 -86 79c-50 -36 -97 -74 -97 -136c0 -70 75 -136 160 -136zM260 576
c0 -46 33 -92 72 -135c40 32 114 64 114 148c0 50 -39 84 -90 84c-58 0 -96 -49 -96 -97z" />
    <glyph glyph-name="space" unicode=" " horiz-adv-x="250" 
 />
    </font>
</defs>
</svg>
